<?xml version="1.0" encoding="UTF-8" standalone="no"?>
<!-- Created with Inkscape (http://www.inkscape.org/) -->

<svg
   version="1.1"
   id="svg1"
   width="497"
   height="509"
   viewBox="0 0 497 509"
   sodipodi:docname="tray-icon-foguete-dark-mode-green.svg"
   inkscape:export-filename="rocket-icon-logo-preto.svg"
   inkscape:export-xdpi="96"
   inkscape:export-ydpi="96"
   inkscape:version="1.4.2 (f4327f4, 2025-05-13)"
   xml:space="preserve"
   xmlns:inkscape="http://www.inkscape.org/namespaces/inkscape"
   xmlns:sodipodi="http://sodipodi.sourceforge.net/DTD/sodipodi-0.dtd"
   xmlns="http://www.w3.org/2000/svg"
   xmlns:svg="http://www.w3.org/2000/svg"
   xmlns:rdf="http://www.w3.org/1999/02/22-rdf-syntax-ns#"
   xmlns:cc="http://creativecommons.org/ns#"><defs
     id="defs1" /><sodipodi:namedview
     id="namedview1"
     pagecolor="#ffffff"
     bordercolor="#000000"
     borderopacity="0.25"
     inkscape:showpageshadow="2"
     inkscape:pageopacity="0.0"
     inkscape:pagecheckerboard="true"
     inkscape:deskcolor="#d1d1d1"
     labelstyle="below"
     inkscape:clip-to-page="false"
     inkscape:export-bgcolor="#ffffff00"
     inkscape:zoom="0.44572691"
     inkscape:cx="269.22314"
     inkscape:cy="251.27493"
     inkscape:window-width="1388"
     inkscape:window-height="1000"
     inkscape:window-x="516"
     inkscape:window-y="0"
     inkscape:window-maximized="0"
     inkscape:current-layer="g1" /><g
     inkscape:groupmode="layer"
     inkscape:label="Image"
     id="g1"><path
       style="fill:#ffffff;fill-opacity:0.996078;stroke-width:1.77477;stroke:none"
       d="m 325.41373,242.20614 c -17.58559,-4.28255 -37.09036,-19.66526 -45.72834,-36.06433 -18.37245,-34.87973 -10.20724,-78.85176 19.81633,-106.716709 42.23369,-39.197177 107.78622,-26.054637 128.0399,25.670539 3.22894,8.24628 3.89047,13.44338 3.916,30.76554 0.0304,20.55242 -0.0626,21.03791 -6.65191,34.81189 -12.53535,26.20276 -35.96863,46.25004 -60.18656,51.48987 -10.73343,2.32231 -29.76058,2.34326 -39.20542,0.0431 z"
       id="path2-2-8"
       sodipodi:nodetypes="sssssssss" /><path
       style="fill:#ffffff;fill-opacity:0.996078;stroke:none;stroke-width:40;stroke-linecap:round;stroke-linejoin:round;stroke-dasharray:none;stroke-opacity:1;paint-order:stroke fill markers"
       d="m 311.8858,495.57047 c -10.27049,-38.84518 -36.73598,-74.17044 -52.29939,-111.16171 0,-1.34742 -0.39428,-1.29823 -2.75,0.34309 -6.193,4.31494 -16.11274,9.22015 -18.64576,9.22015 -4.55779,0 -8.14617,-2.58142 -23.66666,-17.02537 -22.31021,-20.76272 -36.03403,-32.60057 -61.10721,-52.70967 -12.45425,-9.98851 -23.36101,-19.18447 -24.23723,-20.43545 -2.38595,-3.40642 -1.93668,-7.97333 1.41032,-14.33608 3.00346,-5.70966 2.50878,-1.98053 -6.75,-5.10611 -32.308106,-10.90657 -45.662686,-15.01758 -103.767601,-26.824 -8.024699,-1.63055 -10.643911,-8.41057 -6.339151,-16.85316 16.631554,-26.92037 34.437883,-44.8544 49.431972,-61.50755 15.070723,-16.73825 112.7011,8.16936 122.02128,2.91723 0.60498,-0.34091 4.84072,-5.56984 9.41276,-11.61984 4.57205,-6.05 11.69848,-15.05 15.83652,-20 10.10153,-12.08364 36.27532,-38.12429 48.7992,-48.55098 40.82406,-33.987847 95.37476,-61.889247 144.5944,-73.956636 29.00562,-7.111433 54.0431,-9.377581 60.65263,-5.489684 5.4453,3.203063 7.01806,6.182276 8.29265,15.7085 1.44671,10.812588 -0.25356,46.773555 -3.1342,66.2888 -6.72466,45.55694 -23.42258,95.12604 -44.27749,131.44121 -17.19185,29.93658 -40.04885,58.95188 -62.51776,79.36171 -5.24134,4.76102 -1.59446,5.00476 2.9345,27.97905 7.00388,35.52894 21.09496,83.32821 18.41137,89.21803 -4.88543,10.72231 -26.22291,35.97334 -42.20484,49.9457 -17.27491,15.10277 -24.19121,18.12495 -30.10031,13.15277 z m 50.4998,-274.67802 c 19.63729,-5.2228 37.28875,-20.08263 46.73085,-39.34023 17.33439,-35.35433 2.68167,-74.15393 -32.03004,-84.81376 -8.77203,-2.693859 -23.89168,-2.892686 -33.5,-0.440534 -23.70855,6.050694 -46.42536,26.710924 -54.21332,49.305314 -7.68841,22.30559 -3.46981,44.12669 11.62417,60.12711 15.03893,15.94205 37.55044,21.5021 61.38834,15.1621 z"
       id="path2"
       sodipodi:nodetypes="sssssssssssssssssssssssssssssssss" /><path
       style="fill:#00ff00;fill-opacity:0.996078;stroke:none;stroke-width:1.60513"
       d="m 330.00815,231.97923 c -16.04048,-3.84041 -33.83152,-17.63494 -41.71056,-32.3409 -16.75821,-31.27861 -9.3104,-70.71078 18.07523,-95.69884 38.52294,-35.150302 98.3159,-23.364651 116.79005,23.0202 2.94524,7.39491 3.54863,12.05543 3.57193,27.58918 0.0277,18.4305 -0.0571,18.86587 -6.06747,31.21778 -11.43396,23.49748 -32.80834,41.47499 -54.89843,46.17383 -9.79037,2.08255 -27.14576,2.10134 -35.76075,0.0386 z"
       id="path2-2"
       sodipodi:nodetypes="sssssssss" /><path
       style="fill:#fc8822;fill-opacity:0.996078;stroke:none;stroke-width:52.7581;stroke-linecap:round;stroke-linejoin:round;stroke-dasharray:none;stroke-opacity:1;paint-order:stroke fill markers"
       d="m 29.013047,506.46364 c -4.306723,-2.3556 -5.935287,-5.27431 -5.935287,-10.63725 0,-12.38989 16.689024,-33.67032 32.455018,-41.38389 6.026559,-2.94852 9.601949,-3.79385 16.113816,-3.80978 7.546005,-0.0185 8.681966,0.34333 11.554816,3.68018 6.35718,7.38394 3.009639,19.38814 -8.958893,32.12646 -8.531724,9.08048 -17.868102,15.24607 -28.52082,18.83471 -9.007682,3.03446 -12.837155,3.30711 -16.70865,1.18957 z m 98.114323,-30.70721 c -6.17241,-3.50447 -8.3474,-12.68561 -5.84197,-24.66029 5.34208,-25.53252 28.08647,-54.57994 54.80758,-69.99619 21.61511,-12.47044 37.93714,-8.04458 41.42979,11.23402 2.50327,13.81741 -7.32657,33.04562 -26.79798,52.41969 -24.48962,24.36718 -51.81927,37.68996 -63.59742,31.00277 z M 46.818907,414.34104 c -4.880322,-4.88033 -2.872837,-14.20101 7.511607,-34.87603 15.164433,-30.1918 33.667571,-48.98658 55.320066,-56.19209 7.09243,-2.3602 10.64552,-2.78781 18.33309,-2.20641 18.17497,1.37456 23.70275,8.38623 18.41866,23.36295 -6.97119,19.75848 -41.34542,50.34089 -75.08707,66.80426 -13.329876,6.50396 -20.225057,7.3786 -24.496353,3.10732 z"
       id="path2-23"
       sodipodi:nodetypes="sssssssssssssssssssss" /></g><metadata
     id="metadata1"><rdf:RDF><cc:License
         rdf:about="http://creativecommons.org/licenses/by/4.0/"><cc:permits
           rdf:resource="http://creativecommons.org/ns#Reproduction" /><cc:permits
           rdf:resource="http://creativecommons.org/ns#Distribution" /><cc:requires
           rdf:resource="http://creativecommons.org/ns#Notice" /><cc:requires
           rdf:resource="http://creativecommons.org/ns#Attribution" /><cc:permits
           rdf:resource="http://creativecommons.org/ns#DerivativeWorks" /></cc:License><cc:Work
         rdf:about=""><cc:license
           rdf:resource="http://creativecommons.org/licenses/by/4.0/" /></cc:Work></rdf:RDF></metadata></svg>
