<?xml version="1.0" encoding="UTF-8" standalone="no"?>
<!-- Created with Inkscape (http://www.inkscape.org/) -->

<svg
   version="1.1"
   id="svg1"
   width="497"
   height="509"
   viewBox="0 0 497 509"
   sodipodi:docname="rocket-icon-logo-cor.svg"
   inkscape:export-filename="rocket-icon-logo-preto.svg"
   inkscape:export-xdpi="96"
   inkscape:export-ydpi="96"
   inkscape:version="1.4.2 (f4327f4, 2025-05-13)"
   xmlns:inkscape="http://www.inkscape.org/namespaces/inkscape"
   xmlns:sodipodi="http://sodipodi.sourceforge.net/DTD/sodipodi-0.dtd"
   xmlns="http://www.w3.org/2000/svg"
   xmlns:svg="http://www.w3.org/2000/svg"
   xmlns:rdf="http://www.w3.org/1999/02/22-rdf-syntax-ns#"
   xmlns:cc="http://creativecommons.org/ns#">
  <defs
     id="defs1" />
  <sodipodi:namedview
     id="namedview1"
     pagecolor="#ffffff"
     bordercolor="#000000"
     borderopacity="0.25"
     inkscape:showpageshadow="2"
     inkscape:pageopacity="0.0"
     inkscape:pagecheckerboard="true"
     inkscape:deskcolor="#d1d1d1"
     labelstyle="below"
     inkscape:clip-to-page="false"
     inkscape:export-bgcolor="#ffffff00"
     inkscape:zoom="3.5658153"
     inkscape:cx="173.3124"
     inkscape:cy="266.8394"
     inkscape:window-width="3840"
     inkscape:window-height="2054"
     inkscape:window-x="-11"
     inkscape:window-y="-11"
     inkscape:window-maximized="1"
     inkscape:current-layer="g1" />
  <g
     inkscape:groupmode="layer"
     inkscape:label="Image"
     id="g1">
    <path
       d="m 361.53861,101.33124 c -47.179,13.55288 -21.29698,85.76496 25.56086,70.99996 46.05265,-14.51131 20.21877,-84.150809 -25.56086,-70.99996"
       style="fill:#e86e21;fill-opacity:1;stroke:none;stroke-width:2.55628"
       id="path1-2"
       sodipodi:nodetypes="csc" />
    <path
       style="fill:#0c356d;fill-opacity:1;stroke:none"
       d="m 238,160 c 8.65955,-0.17877 17.36018,-1.31882 26,-1.91049 3.25293,-0.22278 7.58835,0.71835 10.48224,-1.11728 4.42023,-2.8038 7.64786,-9.77115 10.6582,-13.97223 7.54346,-10.52725 14.93622,-21.0943 23.29862,-31 C 328.9498,87.70401 355.81949,68.280914 385,55.850311 399.13629,49.8284 413.92688,44.863647 429,41.800934 c 3.62683,-0.736939 12.12891,-3.953797 15.25772,-1.108032 3.04886,2.77304 2.6752,11.478607 2.7392,15.307098 0.22668,13.559113 0.78268,26.424438 -0.84183,40 -3.71493,31.04456 -12.73791,61.612 -28.01697,89 -5.77475,10.35135 -12.30609,20.42722 -19.28937,30 -2.49844,3.4249 -8.20654,8.4845 -8.10491,13 0.17184,7.63565 11.52142,17.44382 15.25616,24 11.36389,-5.80618 20.94794,-26.31564 27.68134,-37 26.97805,-42.80798 42.4812,-93.23914 42.3179,-144 -0.0457,-14.216156 -1.71533,-28.972961 -4.08026,-43 -0.9632,-5.713074 -1.93671,-12.643188 -7.02393,-16.272369 C 459.34335,7.7670898 451.23672,9.6839905 445,10.579468 428.82288,12.902191 412.53174,16.175018 397,21.333344 326.95618,44.595978 274.21765,96.421051 238,160 m -65,124 -35,-51 c -10.66596,4.51599 -28.02863,19.78326 -33.58257,30 -3.84785,7.07831 -1.79653,15.56799 5.58643,19.31171 C 115.80627,285.25397 123.69221,284 130,284 h 43 m 8,33.55786 c -5.67168,0.93179 -21.15433,7.70776 -18.59259,15.40277 2.01094,6.04053 12.77473,11.25373 17.59259,15.03937 16.14316,12.68457 32.60095,25.02222 49,37.37424 5.15697,3.8843 17.89938,17.74756 24.89505,15.88888 8.80557,-2.33957 8.81744,-23.45837 4.59106,-29.22375 -4.68156,-6.38639 -13.19845,-11.19666 -19.48611,-15.91284 -12.0417,-9.03205 -23.95831,-18.22181 -36,-27.25306 -6.02493,-4.51873 -13.74963,-12.67102 -22,-11.31561 M 288,355 c 4.68307,20.24274 12.48932,40.27176 19.00076,60 2.52112,7.63846 4.22153,17.59113 12.99924,20.34723 8.2998,2.60605 15.13489,-1.87293 18.5571,-9.34723 7.29947,-15.94244 13.32895,-32.71646 19.84259,-49 3.59225,-8.98035 8.95819,-18.46326 10.60031,-28 l -81,6 m -127.99924,6.83643 c -6.01674,1.78295 -13.81378,13.14532 -14.76851,19.16357 -0.83136,5.24057 2.96761,10.74228 8.76389,9.01233 6.244,-1.86356 13.33948,-12.87085 14.60571,-19.01233 1.06224,-5.1521 -2.83075,-10.87354 -8.60109,-9.16357 m 28.09259,21.90661 c -6.21214,2.54614 -16.93211,18.92591 -18.85879,25.25696 -1.87042,6.14618 3.55574,11.62103 9.76158,9.39276 7.04402,-2.52927 17.90436,-18.21417 19.58102,-25.39276 1.53507,-6.5723 -3.92907,-11.94348 -10.48381,-9.25696 m -58.07869,15.92902 c -10.18745,2.82852 -8.9654,20.19168 1.97068,16.54245 8.88089,-2.96344 8.85627,-19.54849 -1.97068,-16.54245 m 88,7.08566 c -5.88507,2.11697 -14.56546,14.13941 -15.57638,20.24228 -0.91681,5.53476 4.13794,10.24704 9.55786,8.25308 5.94949,-2.18878 14.53674,-14.04965 15.56558,-20.25308 0.89856,-5.41791 -4.21132,-10.16165 -9.54706,-8.24228 m -114.01389,15.14429 c -8.215598,0.9024 -7.421691,14.37131 0.99923,13.7608 9.10511,-0.66009 7.9767,-14.74673 -0.99923,-13.7608 m 50.99847,5.97531 c -7.0945,0.2709 -23.46959,14.43127 -27.39585,20.21295 -3.19233,4.70093 -0.63407,11.62171 5.41127,11.69598 8.8282,0.10849 24.00454,-13.64727 28.2284,-20.78625 2.80484,-4.7406 -0.40886,-11.34549 -6.24382,-11.12268 M 185,444.75772 c -6.1983,2.17346 -17.92853,13.32904 -20.81712,19.24304 -2.87032,5.87662 2.52783,12.30811 8.81712,10.2562 6.56699,-2.14255 18.81346,-12.77585 21.25694,-19.25772 2.23471,-5.92807 -2.85032,-12.48801 -9.25694,-10.24152 m -83,15.77545 c -5.891594,1.06305 -18.220825,3.0015 -22.682098,7.03089 -6.070679,5.48297 -0.373566,13.82782 6.682098,13.13116 6.622955,-0.65393 18.99915,-2.73892 23.56636,-7.92285 5.3051,-6.02142 -0.3345,-13.54404 -7.56636,-12.2392 m -51.851852,8.49539 c -7.042843,4.12668 -0.809468,16.07462 6.743057,11.93979 8.214104,-4.49701 1.280857,-16.64135 -6.743057,-11.93979 m 91.895832,9.71836 c -8.07033,1.95212 -5.47278,15.24209 2.93827,13.71451 8.80553,-1.59925 5.9871,-15.87348 -2.93827,-13.71451 z"
       id="path1"
       sodipodi:nodetypes="csssssssssssscsssssscccsssccsssssssccsssscccsssccsssccsccsssccsccsssccsssccsssccscsss" />
    <path
       style="fill:#e86e21;fill-opacity:1;stroke:none"
       d="m 160.30698,361.45708 c -6.01674,1.78295 -13.81378,13.14532 -14.76851,19.16357 -0.83136,5.24057 2.96761,10.74228 8.76389,9.01233 6.244,-1.86356 13.33948,-12.87085 14.60571,-19.01233 1.06224,-5.1521 -2.83075,-10.87354 -8.60109,-9.16357 m 28.09259,21.90661 c -6.21214,2.54614 -16.93211,18.92591 -18.85879,25.25696 -1.87042,6.14618 3.55574,11.62103 9.76158,9.39276 7.04402,-2.52927 17.90436,-18.21417 19.58102,-25.39276 1.53507,-6.5723 -3.92907,-11.94348 -10.48381,-9.25696 m -58.07869,15.92902 c -10.18745,2.82852 -8.9654,20.19168 1.97068,16.54245 8.88089,-2.96344 8.85627,-19.54849 -1.97068,-16.54245 m 88,7.08566 c -5.88507,2.11697 -14.56546,14.13941 -15.57638,20.24228 -0.91681,5.53476 4.13794,10.24704 9.55786,8.25308 5.94949,-2.18878 14.53674,-14.04965 15.56558,-20.25308 0.89856,-5.41791 -4.21132,-10.16165 -9.54706,-8.24228 m -114.01389,15.14429 c -8.215592,0.9024 -7.421685,14.37131 0.99923,13.7608 9.10511,-0.66009 7.9767,-14.74673 -0.99923,-13.7608 m 50.99847,5.97531 c -7.0945,0.2709 -23.46959,14.43127 -27.39585,20.21295 -3.19233,4.70093 -0.63407,11.62171 5.41127,11.69598 8.8282,0.10849 24.00454,-13.64727 28.2284,-20.78625 2.80484,-4.7406 -0.40886,-11.34549 -6.24382,-11.12268 m 30.00076,16.8804 c -6.1983,2.17346 -17.92853,13.32904 -20.81712,19.24304 -2.87032,5.87662 2.52783,12.30811 8.81712,10.2562 6.56699,-2.14255 18.81346,-12.77585 21.25694,-19.25772 2.23471,-5.92807 -2.85032,-12.48801 -9.25694,-10.24152 m -83,15.77545 c -5.891582,1.06305 -18.220822,3.0015 -22.682092,7.03089 -6.07068,5.48297 -0.37356,13.82782 6.6821,13.13116 6.62295,-0.65393 18.999142,-2.73892 23.566352,-7.92285 5.3051,-6.02142 -0.3345,-13.54404 -7.56636,-12.2392 m -51.851842,8.49539 c -7.04285,4.12668 -0.80947,16.07462 6.74305,11.93979 8.21411,-4.49701 1.28086,-16.64135 -6.74305,-11.93979 m 91.895822,9.71836 c -8.07033,1.95212 -5.47278,15.24209 2.93827,13.71451 8.80553,-1.59925 5.9871,-15.87348 -2.93827,-13.71451 z"
       id="path1-8"
       sodipodi:nodetypes="csssccsssccsccsssccsccsssccsssccsssccscsss" />
    <path
       d="m 318.82625,185.78336 c -8.65845,2.18843 -20.0725,21.03928 -26.50384,30.48945 -20.11744,29.5604 -39.72476,58.91758 -60.94768,90.36304 -6.45162,9.55919 0.72349,23.1999 13.09557,22.12281 12.1117,-1.05444 20.86479,-18.61705 26.98053,-27.60344 21.71468,-31.94175 42.9093,-65.03432 62.00296,-95.37406 6.03372,-9.58755 -2.94792,-22.5322 -14.62754,-19.9978"
       style="fill:#0c356d;fill-opacity:1;stroke:none;stroke-width:1.00748"
       id="path1-1"
       sodipodi:nodetypes="cssscsc" />
    <path
       d="m 180.4209,207.98288 c 13.88716,-1.10929 26.22062,-1.87982 40.04934,-2.67803 7.67579,-0.44306 15.35083,-1.03385 23.02694,-1.45348 5.80364,-0.31725 14.04151,0.18372 18.95268,-3.35714 7.96655,-5.74379 6.93741,-19.51916 -1.50159,-24.22601 -3.37828,-1.88423 -19.92488,-0.53329 -27.99668,-0.19782 -19.38871,0.80582 -38.42539,2.44813 -57.06346,3.39989 -10.82015,0.55254 -23.47066,0.40995 -28.93234,11.72185 -5.12771,10.62023 -0.0897,19.84254 5.93869,28.52079 3.91875,5.64132 22.25936,34.2113 33.79111,51.17624 4.78357,7.03737 9.69862,17.75518 17.36164,21.90153 10.00295,5.41244 20.71521,-3.14121 20.1205,-14.0448 -0.36756,-6.73881 -5.05982,-12.03294 -8.59301,-17.3985 -4.07783,-6.19269 -8.32369,-12.27052 -12.38214,-18.47583 -7.53256,-11.51716 -15.36016,-22.70795 -22.77168,-34.88869 m 204.4734,94.71864 c -20.49719,1.35377 -39.35981,2.08355 -60.35497,3.34884 -8.32254,0.50156 -19.56655,-0.0582 -25.18134,7.47391 -6.13292,8.22719 -0.98361,20.68021 8.98346,22.24412 8.62059,1.35259 19.19529,-0.2799 27.86635,-0.74318 16.70094,-0.89229 31.97301,-1.77828 48.65635,-3.01746 9.71867,-0.72187 20.96333,0.46062 28.35119,-6.03358 7.50323,-6.59564 9.17262,-18.70974 3.7868,-26.80634 -14.07176,-21.15433 -28.34099,-41.87157 -41.99914,-62.61316 -5.79742,-8.80412 -12.85582,-23.28378 -25.70182,-18.99598 -9.45739,3.15674 -11.51414,15.11101 -6.62434,22.52609 13.83718,20.98322 28.26636,41.90807 42.21746,62.61674"
       style="fill:#0c356d;fill-opacity:1;stroke:none;stroke-width:1.00748"
       id="path1-23"
       sodipodi:nodetypes="csssssssssssssccssssssssssc" />
  </g>
  <metadata
     id="metadata1">
    <rdf:RDF>
      <cc:License
         rdf:about="http://creativecommons.org/licenses/by/4.0/">
        <cc:permits
           rdf:resource="http://creativecommons.org/ns#Reproduction" />
        <cc:permits
           rdf:resource="http://creativecommons.org/ns#Distribution" />
        <cc:requires
           rdf:resource="http://creativecommons.org/ns#Notice" />
        <cc:requires
           rdf:resource="http://creativecommons.org/ns#Attribution" />
        <cc:permits
           rdf:resource="http://creativecommons.org/ns#DerivativeWorks" />
      </cc:License>
      <cc:Work
         rdf:about="">
        <cc:license
           rdf:resource="http://creativecommons.org/licenses/by/4.0/" />
      </cc:Work>
    </rdf:RDF>
  </metadata>
</svg>
