<?xml version="1.0" encoding="UTF-8" standalone="no"?>
<!-- Created with Inkscape (http://www.inkscape.org/) -->

<svg
   version="1.1"
   id="svg1"
   width="497"
   height="509"
   viewBox="0 0 497 509"
   sodipodi:docname="icon-foguete-logo-colorido-bg-branco.svg"
   inkscape:export-filename="icon-foguete-logo-colorido-bg-branco.png"
   inkscape:export-xdpi="96"
   inkscape:export-ydpi="96"
   inkscape:version="1.4.2 (f4327f4, 2025-05-13)"
   xmlns:inkscape="http://www.inkscape.org/namespaces/inkscape"
   xmlns:sodipodi="http://sodipodi.sourceforge.net/DTD/sodipodi-0.dtd"
   xmlns="http://www.w3.org/2000/svg"
   xmlns:svg="http://www.w3.org/2000/svg"
   xmlns:rdf="http://www.w3.org/1999/02/22-rdf-syntax-ns#"
   xmlns:cc="http://creativecommons.org/ns#">
  <defs
     id="defs1" />
  <sodipodi:namedview
     id="namedview1"
     pagecolor="#ffffff"
     bordercolor="#000000"
     borderopacity="0.25"
     inkscape:showpageshadow="2"
     inkscape:pageopacity="0.0"
     inkscape:pagecheckerboard="true"
     inkscape:deskcolor="#d1d1d1"
     labelstyle="below"
     inkscape:clip-to-page="false"
     inkscape:export-bgcolor="#ffffff00"
     inkscape:zoom="2.5214122"
     inkscape:cx="77.337613"
     inkscape:cy="196.31856"
     inkscape:window-width="3840"
     inkscape:window-height="2054"
     inkscape:window-x="-11"
     inkscape:window-y="-11"
     inkscape:window-maximized="1"
     inkscape:current-layer="g1" />
  <g
     inkscape:groupmode="layer"
     inkscape:label="Image"
     id="g1">
    <rect
       style="fill:#ffffff;stroke:none;stroke-width:8.478;stroke-dashoffset:84.6641;paint-order:stroke fill markers"
       id="rect1"
       width="494.96072"
       height="507.65204"
       x="1.0196381"
       y="0.67398071"
       ry="71.388565" />
    <g
       id="g2"
       transform="translate(-21.964455,-6.512966)">
      <path
         d="m 364.455,120.38823 c -44.34221,12.73797 -20.01643,80.60805 24.02392,66.73085 43.28358,-13.63877 19.00305,-79.09096 -24.02392,-66.73085"
         style="fill:#e86e21;fill-opacity:1;stroke:none;stroke-width:2.40257"
         id="path1-2"
         sodipodi:nodetypes="csc" />
      <path
         style="fill:#0c356d;fill-opacity:1;stroke:none;stroke-width:0.939872"
         d="m 248.34457,175.52933 c 8.13887,-0.16802 16.31634,-1.23952 24.43666,-1.79562 3.05733,-0.20938 7.13208,0.67516 9.85196,-1.05009 4.15445,-2.63521 7.18801,-9.18363 10.01734,-13.1321 7.08988,-9.89427 14.03813,-19.82594 21.8977,-29.13602 19.27747,-22.83511 44.53153,-41.090327 71.95746,-52.773498 13.2863,-5.659822 27.18755,-10.326053 41.35435,-13.204609 3.40876,-0.692628 11.39961,-3.716062 14.34029,-1.041408 2.86554,2.606301 2.51435,10.788417 2.5745,14.386706 0.21305,12.743824 0.73562,24.835579 -0.79121,37.594859 -3.49156,29.17791 -11.972,57.90737 -26.33236,83.64857 -5.42752,9.72894 -11.56614,19.19896 -18.12952,28.19615 -2.34822,3.21896 -7.7131,7.97434 -7.61758,12.21833 0.16151,7.17653 10.82866,16.39495 14.33884,22.55692 10.68059,-5.45707 19.68836,-24.73333 26.0169,-34.77525 25.3559,-40.234 39.92687,-87.63282 39.77338,-135.341506 -0.043,-13.361361 -1.61219,-27.230861 -3.83491,-40.414476 -0.90529,-5.369556 -1.82026,-11.882973 -6.6016,-15.293938 -5.21788,-3.722399 -12.83708,-1.920759 -18.69879,-1.079125 -15.20441,2.183061 -30.51599,5.259098 -45.11384,10.107262 C 331.95195,67.064375 282.38451,115.77329 248.34457,175.52933 m -61.09165,116.54408 -32.8955,-47.93345 c -10.02464,4.24444 -26.34332,18.59372 -31.56331,28.19614 -3.61648,6.6527 -1.68851,14.63191 5.25053,18.15053 5.45352,2.76534 12.86529,1.58678 18.7938,1.58678 h 40.41448 m 7.51898,31.54007 c -5.33066,0.87576 -19.88236,7.24431 -17.47465,14.47663 1.89003,5.67732 12.0066,10.57706 16.53477,14.13507 15.1725,11.92187 30.6407,23.51768 46.0537,35.12699 4.8469,3.65074 16.82312,16.68043 23.39816,14.9335 8.2761,-2.19889 8.28726,-22.04785 4.31501,-27.46656 -4.40007,-6.00239 -12.40486,-10.52343 -18.31445,-14.95603 -11.31765,-8.48897 -22.51773,-17.12616 -33.83537,-25.61438 -5.66266,-4.24703 -12.92289,-11.90913 -20.67717,-10.63522 m 100.56625,35.19081 c 4.40148,19.02557 11.73835,37.85027 17.85827,56.39229 2.36953,7.17917 3.9677,16.5334 12.21762,19.12378 7.80075,2.44936 14.22485,-1.76031 17.44128,-8.78519 6.86057,-14.98385 12.52751,-30.74927 18.64949,-46.05371 3.37626,-8.44038 8.41955,-17.35309 9.96293,-26.3164 l -76.12959,5.63923 m -120.30285,6.42536 c -5.65496,1.67574 -12.98317,12.35491 -13.8805,18.01129 -0.78137,4.92547 2.78918,10.09637 8.23693,8.47043 5.86856,-1.7515 12.5374,-12.09694 13.72749,-17.86914 0.99837,-4.84232 -2.66054,-10.21973 -8.08392,-8.61258 m 26.40343,20.5894 c -5.83861,2.39305 -15.91401,17.78793 -17.72484,23.7383 -1.75795,5.77662 3.34194,10.92228 9.17463,8.82799 6.62047,-2.3772 16.8278,-17.11899 18.40364,-23.86593 1.44277,-6.17712 -3.69282,-11.22534 -9.85343,-8.70036 m -54.58651,14.97124 c -9.57489,2.65844 -8.42632,18.97758 1.85219,15.54777 8.3469,-2.78525 8.32375,-18.37307 -1.85219,-15.54777 m 82.7087,6.6596 c -5.53121,1.98969 -13.68967,13.28923 -14.6398,19.02514 -0.86168,5.20197 3.88913,9.63091 8.98317,7.75684 5.59175,-2.05717 13.66267,-13.20487 14.62964,-19.03529 0.84453,-5.09215 -3.9581,-9.55064 -8.97301,-7.74669 m -107.15841,14.23369 c -7.72161,0.84814 -6.97544,13.50719 0.93915,12.93338 8.55763,-0.62039 7.49707,-13.86002 -0.93915,-12.93338 m 47.93201,5.61602 c -6.66792,0.25462 -22.05841,13.56355 -25.74858,18.99758 -3.00038,4.41827 -0.59595,10.92292 5.08589,10.99272 8.29738,0.10197 22.56119,-12.82668 26.53108,-19.5364 2.63618,-4.45556 -0.38428,-10.66331 -5.86839,-10.4539 m 28.19686,15.86541 c -5.82561,2.04277 -16.85052,12.52759 -19.56542,18.08599 -2.69774,5.52327 2.37584,11.56804 8.28696,9.63951 6.17213,-2.01372 17.68223,-12.00766 19.97879,-18.09979 2.10035,-5.57162 -2.67894,-11.73712 -8.70033,-9.62571 m -78.00934,14.82689 c -5.53734,0.99914 -17.12524,2.82103 -21.318259,6.60815 -5.705658,5.15328 -0.351104,12.99637 6.280309,12.3416 6.22473,-0.61461 17.85676,-2.57423 22.14935,-7.44646 4.98612,-5.65937 -0.31438,-12.72966 -7.1114,-11.50329 m -48.734081,7.98458 c -6.619368,3.87856 -0.760796,15.10808 6.337607,11.22187 7.720203,-4.2266 1.203841,-15.64072 -6.337607,-11.22187 m 86.370281,9.13401 c -7.58507,1.83474 -5.14371,14.32561 2.7616,12.88989 8.27606,-1.5031 5.6271,-14.91904 -2.7616,-12.88989 z"
         id="path1"
         sodipodi:nodetypes="csssssssssssscsssssscccsssccsssssssccsssscccsssccsssccsccsssccsccsssccsssccsssccscsss" />
      <path
         style="fill:#e86e21;fill-opacity:1;stroke:none;stroke-width:0.939872"
         d="m 175.32311,364.87311 c -5.65496,1.67575 -12.98317,12.35491 -13.88051,18.01129 -0.78136,4.92547 2.78919,10.09636 8.23694,8.47044 5.86856,-1.75151 12.5374,-12.09695 13.72749,-17.86916 0.99837,-4.84231 -2.66054,-10.21973 -8.08392,-8.61257 m 26.40343,20.5894 c -5.83861,2.39305 -15.91401,17.78792 -17.72484,23.73829 -1.75795,5.77662 3.34193,10.92228 9.17463,8.828 6.62047,-2.3772 16.82779,-17.11898 18.40364,-23.86593 1.44277,-6.17713 -3.69282,-11.22534 -9.85343,-8.70036 m -54.58651,14.97123 c -9.57489,2.65845 -8.42632,18.97758 1.85219,15.54778 8.34689,-2.78525 8.32375,-18.37307 -1.85219,-15.54778 m 82.7087,6.65962 c -5.53122,1.98967 -13.68967,13.28922 -14.6398,19.02514 -0.86168,5.20196 3.88913,9.63089 8.98316,7.75683 5.59175,-2.05717 13.66266,-13.20486 14.62964,-19.03529 0.84453,-5.09214 -3.95809,-9.55065 -8.973,-7.74668 m -107.15842,14.23368 c -7.7216,0.84814 -6.97543,13.50719 0.93915,12.93338 8.55764,-0.62039 7.49708,-13.86003 -0.93915,-12.93338 m 47.93202,5.61603 c -6.66793,0.2546 -22.05841,13.56353 -25.74858,18.99757 -3.00039,4.41827 -0.59595,10.92292 5.08589,10.99272 8.29737,0.10197 22.56119,-12.82668 26.53107,-19.53641 2.63619,-4.45555 -0.38428,-10.6633 -5.86838,-10.45388 m 28.19686,15.8654 c -5.82561,2.04277 -16.85052,12.52758 -19.56542,18.08599 -2.69774,5.52326 2.37583,11.56804 8.28696,9.63951 6.17213,-2.01372 17.68223,-12.00766 19.97879,-18.09979 2.10034,-5.57162 -2.67894,-11.73712 -8.70033,-9.62571 m -78.00935,14.8269 c -5.53732,0.99913 -17.12523,2.82102 -21.318246,6.60813 -5.705659,5.15329 -0.351098,12.99638 6.280316,12.34161 6.22472,-0.61462 17.85675,-2.57424 22.14934,-7.44647 4.98612,-5.65936 -0.31438,-12.72965 -7.11141,-11.50327 m -48.734064,7.98457 c -6.619374,3.87855 -0.760798,15.10808 6.337601,11.22187 7.720208,-4.22661 1.203844,-15.64073 -6.337601,-11.22187 m 86.370264,9.13401 c -7.58506,1.83474 -5.1437,14.32561 2.7616,12.88988 8.27607,-1.50309 5.62711,-14.91904 -2.7616,-12.88988 z"
         id="path1-8"
         sodipodi:nodetypes="csssccsssccsccsssccsccsssccsssccsssccscsss" />
      <path
         d="m 324.31086,199.76238 c -8.13783,2.05684 -18.86557,19.77422 -24.91021,28.65616 -18.9078,27.78299 -37.33617,55.37496 -57.28298,84.92966 -6.0637,8.98441 0.67999,21.80492 12.30815,20.79259 11.38344,-0.99104 19.61023,-17.49763 25.35823,-25.94369 20.40902,-30.02113 40.32924,-61.1239 58.27482,-89.63936 5.67092,-9.01107 -2.77066,-21.17737 -13.74801,-18.79536"
         style="fill:#0c356d;fill-opacity:1;stroke:none;stroke-width:0.946902"
         id="path1-1"
         sodipodi:nodetypes="cssscsc" />
      <path
         d="m 194.22761,220.62707 c 13.05215,-1.04259 24.64402,-1.76678 37.64124,-2.51699 7.21426,-0.41643 14.4278,-0.97169 21.64237,-1.36609 5.45467,-0.29818 13.19721,0.17267 17.81308,-3.15528 7.48753,-5.39842 6.52027,-18.3455 -1.4113,-22.76934 -3.17515,-1.77094 -18.72683,-0.50122 -26.31328,-0.18592 -18.2229,0.75736 -36.11494,2.30092 -53.63233,3.19545 -10.16955,0.51932 -22.0594,0.3853 -27.19268,11.01704 -4.81939,9.98165 -0.0843,18.64944 5.5816,26.80587 3.68312,5.30212 20.92094,32.15424 31.75931,48.0991 4.49594,6.61422 9.11545,16.68758 16.3177,20.58462 9.40149,5.087 19.46965,-2.95233 18.91069,-13.2003 -0.34546,-6.33362 -4.75558,-11.30942 -8.07632,-16.35236 -3.83264,-5.82033 -7.8232,-11.53271 -11.63762,-17.36491 -7.07964,-10.82465 -14.43658,-21.34255 -21.40246,-32.79089 m 192.17874,89.02336 c -19.26473,1.27237 -36.99317,1.95827 -56.72592,3.14748 -7.82212,0.4714 -18.39005,-0.0547 -23.66723,7.02452 -5.76416,7.73249 -0.92446,19.43674 8.4433,20.90661 8.10225,1.27126 18.0411,-0.26307 26.19079,-0.69849 15.69673,-0.83864 30.05052,-1.67136 45.73071,-2.83603 9.13431,-0.67846 19.70284,0.43292 26.64648,-5.67079 7.05207,-6.19905 8.62109,-17.58475 3.55911,-25.19451 -13.22565,-19.88236 -26.63689,-39.3539 -39.4738,-58.84833 -5.44883,-8.27474 -12.08282,-21.88376 -24.15641,-17.85379 -8.88873,2.96694 -10.82181,14.20241 -6.22603,21.17164 13.00518,19.72153 26.56675,39.3882 39.679,58.85169"
         style="fill:#0c356d;fill-opacity:1;stroke:none;stroke-width:0.946902"
         id="path1-23"
         sodipodi:nodetypes="csssssssssssssccssssssssssc" />
    </g>
  </g>
  <metadata
     id="metadata1">
    <rdf:RDF>
      <cc:License
         rdf:about="http://creativecommons.org/licenses/by/4.0/">
        <cc:permits
           rdf:resource="http://creativecommons.org/ns#Reproduction" />
        <cc:permits
           rdf:resource="http://creativecommons.org/ns#Distribution" />
        <cc:requires
           rdf:resource="http://creativecommons.org/ns#Notice" />
        <cc:requires
           rdf:resource="http://creativecommons.org/ns#Attribution" />
        <cc:permits
           rdf:resource="http://creativecommons.org/ns#DerivativeWorks" />
      </cc:License>
      <cc:Work
         rdf:about="">
        <cc:license
           rdf:resource="http://creativecommons.org/licenses/by/4.0/" />
      </cc:Work>
    </rdf:RDF>
  </metadata>
</svg>
