<?xml version="1.0" encoding="UTF-8" standalone="no"?>
<!-- Created with Inkscape (http://www.inkscape.org/) -->

<svg
   version="1.1"
   id="svg1"
   width="3333.3333"
   height="942.66669"
   viewBox="0 0 3333.3333 942.66669"
   sodipodi:docname="logov1-composto-color.svg"
   inkscape:version="1.4.2 (f4327f4, 2025-05-13)"
   inkscape:export-filename="logov1-composto-color.png"
   inkscape:export-xdpi="96"
   inkscape:export-ydpi="96"
   xmlns:inkscape="http://www.inkscape.org/namespaces/inkscape"
   xmlns:sodipodi="http://sodipodi.sourceforge.net/DTD/sodipodi-0.dtd"
   xmlns:xlink="http://www.w3.org/1999/xlink"
   xmlns="http://www.w3.org/2000/svg"
   xmlns:svg="http://www.w3.org/2000/svg">
  <defs
     id="defs1">
    <clipPath
       clipPathUnits="userSpaceOnUse"
       id="clipPath4">
      <use
         x="0"
         y="0"
         xlink:href="#g3"
         id="use4" />
    </clipPath>
  </defs>
  <sodipodi:namedview
     id="namedview1"
     pagecolor="#ffffff"
     bordercolor="#000000"
     borderopacity="0.25"
     inkscape:showpageshadow="2"
     inkscape:pageopacity="0.0"
     inkscape:pagecheckerboard="0"
     inkscape:deskcolor="#d1d1d1"
     inkscape:zoom="0.53760001"
     inkscape:cx="1475.0744"
     inkscape:cy="966.33183"
     inkscape:window-width="3840"
     inkscape:window-height="2054"
     inkscape:window-x="-11"
     inkscape:window-y="-11"
     inkscape:window-maximized="1"
     inkscape:current-layer="g1" />
  <g
     inkscape:groupmode="layer"
     inkscape:label="Image"
     id="g1">
    <g
       id="g4"
       clip-path="url(#clipPath4)">
      <g
         inkscape:label="Clip"
         id="g3" />
    </g>
    <text
       xml:space="preserve"
       style="font-style:italic;font-variant:normal;font-weight:600;font-stretch:normal;font-size:723.705px;font-family:Montserrat;-inkscape-font-specification:'Montserrat, Semi-Bold Italic';font-variant-ligatures:normal;font-variant-caps:normal;font-variant-numeric:normal;font-variant-east-asian:normal;text-align:start;writing-mode:lr-tb;direction:ltr;text-anchor:start;fill:#e86e21;fill-opacity:1;stroke-width:0.377953;stroke-dashoffset:84.6641;paint-order:stroke fill markers"
       x="2585.5654"
       y="1590.4017"
       id="text3"><tspan
         sodipodi:role="line"
         id="tspan3" /></text>
    <g
       id="g6"
       transform="translate(46.502975,-13.020833)">
      <text
         xml:space="preserve"
         style="font-style:normal;font-variant:normal;font-weight:bold;font-stretch:normal;font-size:723.705px;font-family:Montserrat;-inkscape-font-specification:'Montserrat, Bold';font-variant-ligatures:normal;font-variant-caps:normal;font-variant-numeric:normal;font-variant-east-asian:normal;text-align:start;writing-mode:lr-tb;direction:ltr;text-anchor:start;fill:#0c356d;fill-opacity:1;stroke-width:0.372991;stroke-dashoffset:84.6641;paint-order:stroke fill markers"
         x="779.72681"
         y="742.19513"
         id="text1"><tspan
           sodipodi:role="line"
           id="tspan1"
           x="779.72681"
           y="742.19513"
           style="font-style:normal;font-variant:normal;font-weight:bold;font-stretch:normal;font-size:723.705px;font-family:Montserrat;-inkscape-font-specification:'Montserrat, Bold';font-variant-ligatures:normal;font-variant-caps:normal;font-variant-numeric:normal;font-variant-east-asian:normal;fill:#0c356d;fill-opacity:1;stroke-width:0.372991">Ship</tspan></text>
      <g
         id="g2"
         transform="matrix(1.4770303,0,0,1.4770303,585.10085,-747.65461)">
        <path
           d="m -39.53089,669.00971 c -47.179,13.55288 -21.29698,85.76496 25.56086,70.99996 46.05265,-14.51131 20.21877,-84.15081 -25.56086,-70.99996"
           style="fill:#e86e21;fill-opacity:1;stroke:none;stroke-width:2.55628"
           id="path1-2"
           sodipodi:nodetypes="csc" />
        <path
           style="fill:#0c356d;fill-opacity:1;stroke:none"
           d="m -163.0695,727.67847 c 8.65955,-0.17877 17.36018,-1.31882 26,-1.91049 3.25293,-0.22278 7.58835,0.71835 10.48224,-1.11728 4.42023,-2.8038 7.64786,-9.77115 10.6582,-13.97223 7.54346,-10.52725 14.93622,-21.0943 23.29862,-31 20.51074,-24.29599 47.38043,-43.71909 76.56094,-56.14969 14.13629,-6.02191 28.92688,-10.98666 44,-14.04938 3.62683,-0.73694 12.12891,-3.95379 15.25772,-1.10803 3.04886,2.77304 2.6752,11.47861 2.7392,15.3071 0.22668,13.55911 0.78268,26.42444 -0.84183,40 -3.71493,31.04456 -12.73791,61.612 -28.01697,89 -5.77475,10.35135 -12.30609,20.42722 -19.28937,30 -2.49844,3.4249 -8.20654,8.4845 -8.10491,13 0.17184,7.63565 11.52142,17.44382 15.25616,24 11.36389,-5.80618 20.94794,-26.31564 27.68134,-37 26.97805,-42.80798 42.4812,-93.23914 42.3179,-144 -0.0457,-14.21616 -1.71533,-28.97296 -4.08026,-43 -0.9632,-5.71307 -1.93671,-12.64319 -7.02393,-16.27237 -5.5517,-3.96054 -13.65833,-2.04364 -19.89505,-1.14816 -16.17712,2.32272 -32.46826,5.59555 -48,10.75387 -70.04382,23.26264 -122.78235,75.08771 -159,138.66666 m -65,124 -35,-51 c -10.66596,4.51599 -28.02863,19.78326 -33.58257,30 -3.84785,7.07831 -1.79653,15.56799 5.58643,19.31171 5.80241,2.94226 13.68835,1.68829 19.99614,1.68829 h 43 m 8,33.55786 c -5.67168,0.93179 -21.15433,7.70776 -18.59259,15.40277 2.01094,6.04053 12.77473,11.25373 17.59259,15.03937 16.14316,12.68457 32.60095,25.02222 49,37.37424 5.15697,3.8843 17.89938,17.74756 24.89505,15.88888 8.80557,-2.33957 8.81744,-23.45837 4.59106,-29.22375 -4.68156,-6.38639 -13.19845,-11.19666 -19.48611,-15.91284 -12.0417,-9.03205 -23.95831,-18.22181 -36,-27.25306 -6.02493,-4.51873 -13.74963,-12.67102 -22,-11.31561 m 107,37.44214 c 4.68307,20.24274 12.48932,40.27176 19.00076,60 2.52112,7.63846 4.22153,17.59113 12.99924,20.34723 8.2998,2.606 15.13489,-1.8729 18.5571,-9.34723 7.29947,-15.94244 13.32895,-32.71646 19.84259,-49 3.59225,-8.98035 8.95819,-18.46326 10.60031,-28 l -81,6 m -127.99924,6.83643 c -6.01674,1.78295 -13.81378,13.14532 -14.76851,19.16357 -0.83136,5.24057 2.96761,10.74228 8.76389,9.01233 6.244,-1.86356 13.33948,-12.87085 14.60571,-19.01233 1.06224,-5.1521 -2.83075,-10.87354 -8.60109,-9.16357 m 28.09259,21.90661 c -6.21214,2.54614 -16.93211,18.92591 -18.85879,25.25696 -1.87042,6.14618 3.55574,11.62103 9.76158,9.39276 7.04402,-2.52927 17.90436,-18.21417 19.58102,-25.39276 1.53507,-6.5723 -3.92907,-11.94348 -10.48381,-9.25696 m -58.07869,15.92902 c -10.18745,2.82852 -8.9654,20.19168 1.97068,16.54245 8.88089,-2.96344 8.85627,-19.54849 -1.97068,-16.54245 m 88,7.08566 c -5.88507,2.11697 -14.56546,14.13941 -15.57638,20.24228 -0.91681,5.53473 4.13794,10.24703 9.55786,8.25313 5.94949,-2.1888 14.53674,-14.0497 15.56558,-20.25313 0.89856,-5.41791 -4.21132,-10.16165 -9.54706,-8.24228 m -114.01389,15.14429 c -8.2156,0.9024 -7.42169,14.37132 0.99923,13.76082 9.10511,-0.6601 7.9767,-14.74675 -0.99923,-13.76082 m 50.99847,5.97531 c -7.0945,0.2709 -23.46959,14.43131 -27.39585,20.21291 -3.19233,4.701 -0.63407,11.6217 5.41127,11.696 8.8282,0.1085 24.00454,-13.6473 28.2284,-20.7862 2.80484,-4.7406 -0.40886,-11.34552 -6.24382,-11.12271 m 30.00076,16.88041 c -6.1983,2.1734 -17.92853,13.329 -20.81712,19.243 -2.87032,5.8767 2.52783,12.3081 8.81712,10.2562 6.56699,-2.1425 18.81346,-12.7758 21.25694,-19.2577 2.23471,-5.9281 -2.85032,-12.488 -9.25694,-10.2415 m -83,15.7754 c -5.89159,1.0631 -18.22082,3.0015 -22.6821,7.0309 -6.07068,5.483 -0.37356,13.8279 6.6821,13.1312 6.62295,-0.6539 18.99915,-2.7389 23.56636,-7.9229 5.3051,-6.0214 -0.3345,-13.544 -7.56636,-12.2392 m -51.85185,8.4954 c -7.04285,4.1267 -0.80947,16.0747 6.74306,11.9398 8.2141,-4.497 1.28085,-16.6413 -6.74306,-11.9398 m 91.89583,9.7184 c -8.07033,1.9521 -5.47278,15.2421 2.93827,13.7145 8.80553,-1.5992 5.9871,-15.8735 -2.93827,-13.7145 z"
           id="path1"
           sodipodi:nodetypes="csssssssssssscsssssscccsssccsssssssccsssscccsssccsssccsccsssccsccsssccsssccsssccscsss" />
        <path
           style="fill:#e86e21;fill-opacity:1;stroke:none"
           d="m -240.76252,929.13555 c -6.01674,1.78295 -13.81378,13.14532 -14.76851,19.16357 -0.83136,5.24057 2.96761,10.74228 8.76389,9.01233 6.244,-1.86356 13.33948,-12.87085 14.60571,-19.01233 1.06224,-5.1521 -2.83075,-10.87354 -8.60109,-9.16357 m 28.09259,21.90661 c -6.21214,2.54614 -16.93211,18.92591 -18.85879,25.25696 -1.87042,6.14618 3.55574,11.62103 9.76158,9.39276 7.04402,-2.52927 17.90436,-18.21417 19.58102,-25.39276 1.53507,-6.5723 -3.92907,-11.94348 -10.48381,-9.25696 m -58.07869,15.92902 c -10.18745,2.82852 -8.9654,20.19168 1.97068,16.54245 8.88089,-2.96344 8.85627,-19.54849 -1.97068,-16.54245 m 88,7.08566 c -5.88507,2.11697 -14.56546,14.13941 -15.57638,20.24228 -0.91681,5.53476 4.13794,10.24708 9.55786,8.25308 5.94949,-2.1888 14.53674,-14.04965 15.56558,-20.25308 0.89856,-5.41791 -4.21132,-10.16165 -9.54706,-8.24228 m -114.01389,15.14429 c -8.21559,0.9024 -7.42168,14.37127 0.99923,13.76077 9.10511,-0.6601 7.9767,-14.7467 -0.99923,-13.76077 m 50.99847,5.97531 c -7.0945,0.2709 -23.46959,14.43126 -27.39585,20.21296 -3.19233,4.7009 -0.63407,11.6217 5.41127,11.696 8.8282,0.1085 24.00454,-13.6473 28.2284,-20.7863 2.80484,-4.7406 -0.40886,-11.34547 -6.24382,-11.12266 m 30.00076,16.88036 c -6.1983,2.1735 -17.92853,13.3291 -20.81712,19.2431 -2.87032,5.8766 2.52783,12.3081 8.81712,10.2562 6.56699,-2.1426 18.81346,-12.7759 21.25694,-19.2577 2.23471,-5.9281 -2.85032,-12.4881 -9.25694,-10.2416 m -83,15.7755 c -5.89158,1.063 -18.22082,3.0015 -22.68209,7.0309 -6.07068,5.4829 -0.37356,13.8278 6.6821,13.1311 6.62295,-0.6539 18.99914,-2.7389 23.56635,-7.9228 5.3051,-6.0214 -0.3345,-13.544 -7.56636,-12.2392 m -51.85184,8.4954 c -7.04285,4.1267 -0.80947,16.0746 6.74305,11.9398 8.21411,-4.497 1.28086,-16.6414 -6.74305,-11.9398 m 91.89582,9.7183 c -8.07033,1.9522 -5.47278,15.2421 2.93827,13.7146 8.80553,-1.5993 5.9871,-15.8735 -2.93827,-13.7146 z"
           id="path1-8"
           sodipodi:nodetypes="csssccsssccsccsssccsccsssccsssccsssccscsss" />
        <path
           d="m -82.24325,753.46183 c -8.65845,2.18843 -20.0725,21.03928 -26.50384,30.48945 -20.11744,29.5604 -39.72476,58.91758 -60.94768,90.36304 -6.45162,9.55919 0.72349,23.1999 13.09557,22.12281 12.1117,-1.05444 20.86479,-18.61705 26.98053,-27.60344 21.71468,-31.94175 42.9093,-65.03432 62.00296,-95.37406 6.03372,-9.58755 -2.94792,-22.5322 -14.62754,-19.9978"
           style="fill:#0c356d;fill-opacity:1;stroke:none;stroke-width:1.00748"
           id="path1-1"
           sodipodi:nodetypes="cssscsc" />
        <path
           d="m -220.6486,775.66135 c 13.88716,-1.10929 26.22062,-1.87982 40.04934,-2.67803 7.67579,-0.44306 15.35083,-1.03385 23.02694,-1.45348 5.80364,-0.31725 14.04151,0.18372 18.95268,-3.35714 7.96655,-5.74379 6.93741,-19.51916 -1.50159,-24.22601 -3.37828,-1.88423 -19.92488,-0.53329 -27.99668,-0.19782 -19.38871,0.80582 -38.42539,2.44813 -57.06346,3.39989 -10.82015,0.55254 -23.47066,0.40995 -28.93234,11.72185 -5.12771,10.62023 -0.0897,19.84254 5.93869,28.52079 3.91875,5.64132 22.25936,34.2113 33.79111,51.17624 4.78357,7.03737 9.69862,17.75518 17.36164,21.90153 10.00295,5.41244 20.71521,-3.14121 20.1205,-14.0448 -0.36756,-6.73881 -5.05982,-12.03294 -8.59301,-17.3985 -4.07783,-6.19269 -8.32369,-12.27052 -12.38214,-18.47583 -7.53256,-11.51716 -15.36016,-22.70795 -22.77168,-34.88869 m 204.4734,94.71864 c -20.49719,1.35377 -39.35981,2.08355 -60.35497,3.34884 -8.32254,0.50156 -19.56655,-0.0582 -25.18134,7.47391 -6.13292,8.22719 -0.98361,20.68021 8.98346,22.24412 8.62059,1.35259 19.19529,-0.2799 27.86635,-0.74318 16.70094,-0.89229 31.97301,-1.77828 48.65635,-3.01746 9.71867,-0.72187 20.96333,0.46062 28.35119,-6.03358 7.50323,-6.59564 9.17262,-18.70974 3.7868,-26.80634 -14.07176,-21.15433 -28.34099,-41.87157 -41.99914,-62.61316 -5.79742,-8.80412 -12.85582,-23.28378 -25.70182,-18.99598 -9.45739,3.15674 -11.51414,15.11101 -6.62434,22.52609 13.83718,20.98322 28.26636,41.90807 42.21746,62.61674"
           style="fill:#0c356d;fill-opacity:1;stroke:none;stroke-width:1.00748"
           id="path1-23"
           sodipodi:nodetypes="csssssssssssssccssssssssssc" />
      </g>
      <g
         id="g5"
         transform="translate(257.67559,-753.48808)">
        <path
           d="m 2205,1496.5927 84.9881,-424.9406 89.989,20.464 -80.8954,404.4766 z m 366.9186,5.0659 c -25.0884,0 -46.7995,-5.3072 -65.1334,-15.9215 -17.8514,-11.0968 -30.8781,-26.5358 -39.0801,-46.3171 -7.7195,-20.2638 -8.9257,-44.1461 -3.6185,-71.6468 l 68.752,-343.0362 h 90.4631 l -68.752,342.3125 c -2.8948,17.8513 -0.9649,32.3254 5.7897,43.4223 6.7545,11.0968 19.54,16.6452 38.3563,16.6452 8.6845,0 17.3689,-1.2062 26.0534,-3.6186 9.1669,-2.8948 17.3689,-6.7545 24.606,-11.5792 l 15.9215,66.5808 c -13.5091,8.6845 -28.4657,14.7154 -44.8697,18.0927 -16.404,3.3773 -32.5668,5.0659 -48.4883,5.0659 z m -133.1617,-319.1539 13.7504,-72.3705 h 257.639 l -14.4741,72.3705 z m 336.5229,146.1884 49.2119,-338.69396 h 107.8321 l -85.3972,338.69396 z m 9.4082,172.9655 c -15.9215,0 -29.1895,-5.0659 -39.8038,-15.1978 -10.1319,-10.6143 -15.1978,-22.9173 -15.1978,-36.909 0,-17.3689 5.7896,-31.6018 17.3689,-42.6986 12.0617,-11.5793 26.2946,-17.3689 42.6986,-17.3689 15.9215,0 28.9482,5.0659 39.0801,15.1978 10.6143,9.6494 15.9215,21.9524 15.9215,36.909 0,10.6143 -2.6536,20.7462 -7.9608,30.3956 -5.3071,9.1669 -12.5442,16.404 -21.7111,21.7111 -8.6845,5.3072 -18.8163,7.9608 -30.3956,7.9608 z"
           id="text1-7-3"
           clip-path="none"
           style="font-style:italic;font-weight:600;font-size:723.705px;font-family:Montserrat;-inkscape-font-specification:'Montserrat, Semi-Bold Italic';white-space:pre;inline-size:838.933;fill:#e86e21;stroke-width:0.372991;stroke-dashoffset:84.6641;paint-order:stroke fill markers"
           aria-label="It!"
           sodipodi:nodetypes="cccccsccccccsscccssccccccccccscscscsccs" />
        <path
           d="m 2292.3934,1059.6528 14.1679,-70.83971 h 94.0817 l -17.4323,87.16181 z"
           style="font-style:italic;font-weight:600;font-size:723.705px;font-family:Montserrat;-inkscape-font-specification:'Montserrat, Semi-Bold Italic';white-space:pre;inline-size:838.933;fill:#0c356d;fill-opacity:1;stroke-width:0.372991;stroke-dashoffset:84.6641;paint-order:stroke fill markers"
           id="path1-5"
           sodipodi:nodetypes="ccccc" />
      </g>
    </g>
  </g>
</svg>
