<?xml version="1.0" encoding="UTF-8" standalone="no"?>
<!-- Created with Inkscape (http://www.inkscape.org/) -->

<svg
   version="1.1"
   id="svg1"
   width="512"
   height="512"
   viewBox="0 0 512 512"
   sodipodi:docname="tray-icon-foguete-dark-mode-black-2-escuro.svg"
   inkscape:export-filename="tray-icon-foguete-black.png"
   inkscape:export-xdpi="96"
   inkscape:export-ydpi="96"
   inkscape:version="1.4.2 (f4327f4, 2025-05-13)"
   xml:space="preserve"
   xmlns:inkscape="http://www.inkscape.org/namespaces/inkscape"
   xmlns:sodipodi="http://sodipodi.sourceforge.net/DTD/sodipodi-0.dtd"
   xmlns="http://www.w3.org/2000/svg"
   xmlns:svg="http://www.w3.org/2000/svg"
   xmlns:rdf="http://www.w3.org/1999/02/22-rdf-syntax-ns#"
   xmlns:cc="http://creativecommons.org/ns#"><defs
     id="defs1" /><sodipodi:namedview
     id="namedview1"
     pagecolor="#ffffff"
     bordercolor="#000000"
     borderopacity="0.25"
     inkscape:showpageshadow="2"
     inkscape:pageopacity="0.0"
     inkscape:pagecheckerboard="true"
     inkscape:deskcolor="#d1d1d1"
     labelstyle="below"
     inkscape:clip-to-page="false"
     inkscape:export-bgcolor="#ffffff00"
     inkscape:zoom="1.2824516"
     inkscape:cx="214.82292"
     inkscape:cy="242.89416"
     inkscape:window-width="1920"
     inkscape:window-height="1009"
     inkscape:window-x="-8"
     inkscape:window-y="-8"
     inkscape:window-maximized="1"
     inkscape:current-layer="g2" /><g
     inkscape:groupmode="layer"
     inkscape:label="Image"
     id="g1"><g
       id="g2"
       transform="translate(-34.19892,-179.34732)"><path
         style="fill:#ffffff;fill-opacity:0.99607801;stroke:#000000;stroke-width:67.5;stroke-linecap:round;stroke-linejoin:round;stroke-dasharray:none;stroke-opacity:1;paint-order:stroke fill markers"
         d="m 337.17633,648.44932 c -7.51647,-36.39046 -30.16595,-70.35083 -42.66389,-105.29743 0.0682,-1.24424 -0.29833,-1.21878 -2.55677,0.17753 -5.93726,3.67081 -15.34575,7.69793 -17.68478,7.56964 -4.20874,-0.23084 -7.39157,-2.79632 -20.99186,-16.92019 -19.55001,-20.30263 -31.62323,-31.92898 -53.7577,-51.76799 -10.99456,-9.85435 -20.60027,-18.89846 -21.34603,-20.09801 -2.03068,-3.26639 -1.38452,-7.4608 2.02842,-13.16675 3.06263,-5.12027 2.41697,-1.70178 -5.97444,-5.05693 -29.28142,-11.70769 -41.40504,-16.18026 -94.462082,-30.02544 -7.32756,-1.91212 -9.402776,-8.30557 -5.000081,-15.88357 16.721332,-24.01632 34.072333,-39.67504 48.761573,-54.29338 14.76433,-14.69306 103.65628,13.25191 112.52869,8.87405 0.57592,-0.28415 4.75211,-4.8981 9.28043,-10.25319 4.52833,-5.35511 11.56483,-13.3049 15.63667,-17.66623 9.93995,-10.64659 35.42818,-33.36728 47.52104,-42.36112 39.41906,-29.31725 91.20524,-52.31892 137.26665,-60.96922 27.14445,-5.09771 50.37924,-5.92219 56.28567,-1.99727 4.86606,3.23356 6.16746,6.06427 6.86196,14.9255 0.78826,10.05779 -2.60318,43.17862 -6.25164,61.05341 -8.51707,41.72743 -26.44682,86.6546 -47.54391,119.13235 -17.39149,26.77317 -39.96761,52.4087 -61.74951,70.11744 -5.08107,4.13093 -1.72583,4.54071 1.29266,25.98493 4.66799,33.16275 15.25894,78.01507 12.48256,83.31791 -5.05436,9.65371 -26.03668,31.8902 -41.50234,43.98303 -16.71686,13.07119 -23.25656,15.51163 -28.46129,10.62093 z m 60.5445,-251.08439 c 18.39792,-3.8282 35.4502,-16.65599 45.14457,-33.96054 17.79751,-31.7688 6.23212,-68.33912 -25.28134,-79.9407 -7.96379,-2.93184 -21.91545,-3.88124 -30.91213,-2.10353 -22.19931,4.38649 -44.22282,22.3139 -52.55873,42.78349 -8.22935,20.20793 -5.43905,40.57155 7.68859,56.1111 13.07973,15.48284 33.58562,21.75728 55.91904,17.11018 z"
         id="path2"
         sodipodi:nodetypes="sssssssssssssssssssssssssssssssss" /><path
         style="fill:#ff8400;fill-opacity:0.996078;stroke:#000000;stroke-width:48.0898;stroke-linecap:round;stroke-linejoin:round;stroke-dasharray:none;stroke-opacity:1;paint-order:stroke fill markers"
         d="m 71.242785,649.29049 c -3.860095,-2.3893 -5.219011,-5.16554 -4.952566,-10.11805 0.615563,-11.44168 17.084624,-30.26433 32.027262,-36.60428 5.711829,-2.42344 9.055589,-3.02645 15.069889,-2.71763 6.96942,0.35783 8.00047,0.74839 10.48767,3.9726 5.5038,7.13468 1.81606,18.05388 -9.86938,29.22268 -8.32993,7.96167 -17.258108,13.19154 -27.273858,15.97627 -8.469071,2.35471 -12.019013,2.41624 -15.489017,0.26841 z m 75.939355,-20.3479 c -5.52592,-3.54294 -7.0783,-12.12948 -4.16969,-23.06325 6.20177,-23.31307 28.64866,-49.00746 54.09069,-61.9163 20.58045,-10.44218 35.43344,-5.54411 37.70097,12.4326 1.62522,12.88432 -8.40765,30.1526 -27.35144,47.07655 -23.82602,21.28562 -49.72601,32.23098 -60.27053,25.4704 z m -51.892075,-45.6509 c -4.264364,-4.74931 -1.947439,-13.25693 8.669465,-31.83373 15.50389,-27.12777 33.52475,-43.56488 53.87813,-49.1432 6.66691,-1.82719 9.96932,-2.04555 17.03967,-1.12671 16.71572,2.17234 21.47208,8.92203 15.84831,22.49004 -7.41933,17.9 -40.68228,44.4341 -72.65958,57.96112 -12.63286,5.34394 -19.043799,5.80908 -22.775995,1.65248 z"
         id="path2-23"
         sodipodi:nodetypes="sssssssssssssssssssss" /><circle
         style="fill:#333349;fill-opacity:1;stroke:#000000;stroke-width:46.3133;stroke-linecap:round;stroke-linejoin:round;stroke-dasharray:none;stroke-opacity:1;paint-order:stroke fill markers"
         id="path3"
         cx="399.02203"
         cy="331.79752"
         r="58.156967"
         transform="rotate(3.139501)" /></g></g><metadata
     id="metadata1"><rdf:RDF><cc:Work
         rdf:about=""><cc:license
           rdf:resource="http://creativecommons.org/licenses/by/4.0/" /></cc:Work><cc:License
         rdf:about="http://creativecommons.org/licenses/by/4.0/"><cc:permits
           rdf:resource="http://creativecommons.org/ns#Reproduction" /><cc:permits
           rdf:resource="http://creativecommons.org/ns#Distribution" /><cc:requires
           rdf:resource="http://creativecommons.org/ns#Notice" /><cc:requires
           rdf:resource="http://creativecommons.org/ns#Attribution" /><cc:permits
           rdf:resource="http://creativecommons.org/ns#DerivativeWorks" /></cc:License></rdf:RDF></metadata></svg>
