<?xml version="1.0" encoding="UTF-8" standalone="no"?>
<!-- Created with Inkscape (http://www.inkscape.org/) -->

<svg
   version="1.1"
   id="svg1"
   width="497"
   height="509"
   viewBox="0 0 497 509"
   sodipodi:docname="tray-icon-foguete-dark-mode-yellow-2-escuro.svg"
   inkscape:export-filename="tray-icon-foguete-dark-mode-yellow-2-escuro.png"
   inkscape:export-xdpi="96"
   inkscape:export-ydpi="96"
   inkscape:version="1.4.2 (f4327f4, 2025-05-13)"
   xml:space="preserve"
   xmlns:inkscape="http://www.inkscape.org/namespaces/inkscape"
   xmlns:sodipodi="http://sodipodi.sourceforge.net/DTD/sodipodi-0.dtd"
   xmlns="http://www.w3.org/2000/svg"
   xmlns:svg="http://www.w3.org/2000/svg"
   xmlns:rdf="http://www.w3.org/1999/02/22-rdf-syntax-ns#"
   xmlns:cc="http://creativecommons.org/ns#"><defs
     id="defs1" /><sodipodi:namedview
     id="namedview1"
     pagecolor="#ffffff"
     bordercolor="#000000"
     borderopacity="0.25"
     inkscape:showpageshadow="2"
     inkscape:pageopacity="0.0"
     inkscape:pagecheckerboard="true"
     inkscape:deskcolor="#d1d1d1"
     labelstyle="below"
     inkscape:clip-to-page="false"
     inkscape:export-bgcolor="#ffffff00"
     inkscape:zoom="0.64122578"
     inkscape:cx="231.58769"
     inkscape:cy="83.433951"
     inkscape:window-width="1920"
     inkscape:window-height="1009"
     inkscape:window-x="-8"
     inkscape:window-y="-8"
     inkscape:window-maximized="1"
     inkscape:current-layer="g2" /><g
     inkscape:groupmode="layer"
     inkscape:label="Image"
     id="g1"><g
       id="g2"
       transform="translate(-34.19892,-179.34732)"><path
         style="fill:#003160;fill-opacity:0.996078;stroke:#ffffff;stroke-width:48.0898;stroke-linecap:round;stroke-linejoin:round;stroke-dasharray:none;stroke-opacity:1;paint-order:stroke fill markers"
         d="m 337.3365,643.47296 c -8.21721,-36.23866 -31.51773,-69.75569 -44.68763,-104.45464 0.0442,-1.24532 -0.32179,-1.2128 -2.55287,0.22683 -5.86533,3.78468 -15.19437,7.99259 -17.53544,7.90945 -4.21241,-0.14959 -7.44414,-2.65318 -21.31442,-16.512 -19.9381,-19.92164 -32.2334,-31.31288 -54.74654,-50.72111 -11.18265,-9.64038 -20.96108,-18.49747 -21.72984,-19.68241 -2.09333,-3.2266 -1.52822,-7.43269 1.77399,-13.20343 2.96327,-5.17841 2.38368,-1.7481 -6.0709,-4.94072 -29.50187,-11.14053 -41.70953,-15.37834 -95.02383,-28.19723 -7.36309,-1.77038 -9.56128,-8.12259 -5.30562,-15.78413 16.25483,-24.33449 33.30047,-40.32507 47.70492,-55.22412 14.47808,-14.9752 103.89267,11.24942 112.67896,6.70119 0.57033,-0.29521 4.65672,-4.98888 9.08087,-10.43035 4.42416,-5.44148 11.30596,-13.52556 15.2929,-17.96464 9.73267,-10.8364 34.77777,-34.04465 46.69484,-43.27015 38.84605,-30.07237 90.17878,-54.06896 136.06471,-63.60639 27.04104,-5.62051 50.2556,-6.89314 56.23666,-3.08292 4.92754,3.13907 6.28332,5.94414 7.14866,14.79032 0.98218,10.04071 -1.76957,43.22081 -5.07246,61.16267 -7.71037,41.884 -24.76992,87.14876 -45.23643,120.02752 -16.87167,27.10375 -38.94896,53.17011 -60.38512,71.29583 -5.00042,4.2282 -1.6379,4.57317 1.79379,25.95515 5.30699,33.06651 16.76138,77.70613 14.08784,83.06155 -4.86716,9.74944 -25.41652,32.38664 -40.64597,44.77562 -16.46155,13.39131 -22.95294,15.95747 -28.25107,11.16811 z m 55.68862,-252.20584 c 18.32063,-4.18247 35.12223,-17.33689 44.48091,-34.82527 17.18122,-32.10628 4.91237,-68.44665 -26.81907,-79.43802 -8.01888,-2.77764 -21.98626,-3.45767 -30.94697,-1.5067 -22.11054,4.81401 -43.78404,23.16302 -51.72344,43.78963 -7.83792,20.36296 -4.65522,40.66895 8.7698,55.95231 13.37604,15.22759 33.99917,21.1052 56.23877,16.02805 z"
         id="path2"
         sodipodi:nodetypes="sssssssssssssssssssssssssssssssss" /><path
         style="fill:#ff8400;fill-opacity:0.996078;stroke:#ffffff;stroke-width:48.0898;stroke-linecap:round;stroke-linejoin:round;stroke-dasharray:none;stroke-opacity:1;paint-order:stroke fill markers"
         d="m 69.53388,657.40876 c -3.98288,-2.17847 -5.48898,-4.8777 -5.48898,-9.83737 0,-11.45823 15.43408,-31.13846 30.01454,-38.272 5.57339,-2.7268 8.87992,-3.50857 14.90213,-3.5233 6.97857,-0.0171 8.02912,0.31751 10.68594,3.40344 5.87915,6.8287 2.78333,17.93024 -8.28522,29.71069 -7.89018,8.39767 -16.5245,14.09963 -26.37618,17.41842 -8.33034,2.80628 -11.87185,3.05843 -15.45223,1.10012 z m 90.73655,-28.39816 c -5.70827,-3.24095 -7.71971,-11.7317 -5.40268,-22.80594 4.94038,-23.61258 25.97449,-50.47576 50.68628,-64.73277 19.98975,-11.53272 35.08443,-7.43967 38.31445,10.38927 2.31504,12.7784 -6.77564,30.56073 -24.78289,48.47795 -22.6481,22.53487 -47.92268,34.85584 -58.81516,28.67149 z M 86.00082,572.21339 c -4.51335,-4.51335 -2.65682,-13.13316 6.94676,-32.2535 14.02413,-27.92151 31.13592,-45.303 51.16024,-51.96669 6.55911,-2.18272 9.84502,-2.57818 16.95452,-2.0405 16.80829,1.2712 21.9204,7.75562 17.03365,21.60616 -6.44698,18.27273 -38.23642,46.55547 -69.44084,61.78086 -12.32753,6.01489 -18.70422,6.82377 -22.65433,2.87367 z"
         id="path2-23"
         sodipodi:nodetypes="sssssssssssssssssssss" /><circle
         style="fill:#ffd42a;fill-opacity:1;stroke:#ffffff;stroke-width:46.3133;stroke-linecap:round;stroke-linejoin:round;stroke-dasharray:none;stroke-opacity:1;paint-order:stroke fill markers"
         id="path3"
         cx="386.79959"
         cy="333.88266"
         r="58.156967"
         transform="rotate(2.0339247)" /></g></g><metadata
     id="metadata1"><rdf:RDF><cc:License
         rdf:about="http://creativecommons.org/licenses/by/4.0/"><cc:permits
           rdf:resource="http://creativecommons.org/ns#Reproduction" /><cc:permits
           rdf:resource="http://creativecommons.org/ns#Distribution" /><cc:requires
           rdf:resource="http://creativecommons.org/ns#Notice" /><cc:requires
           rdf:resource="http://creativecommons.org/ns#Attribution" /><cc:permits
           rdf:resource="http://creativecommons.org/ns#DerivativeWorks" /></cc:License><cc:Work
         rdf:about=""><cc:license
           rdf:resource="http://creativecommons.org/licenses/by/4.0/" /></cc:Work></rdf:RDF></metadata></svg>
